<svg width="123" height="27" viewBox="0 0 33 27" fill="none" xmlns="http://www.w3.org/2000/svg">
<path fill-rule="evenodd" clip-rule="evenodd" d="M32.0965 0.796655C32.0961 0.745043 32.0909 0.69358 32.0811 0.6429C32.0811 0.627524 32.0734 0.613686 32.0688 0.59831C32.0642 0.582935 32.0488 0.52912 32.0365 0.495294L32.0135 0.446092C31.9992 0.416745 31.9827 0.388482 31.9643 0.361526C31.9535 0.344613 31.9428 0.3277 31.9305 0.310787L31.9089 0.281574C31.8966 0.267736 31.8828 0.256973 31.8705 0.244672L31.8397 0.207771L31.8151 0.190858C31.7926 0.171589 31.769 0.153622 31.7444 0.137043L31.6844 0.0986042C31.658 0.0847479 31.6308 0.072427 31.603 0.0617028L31.5384 0.0355643C31.5092 0.026339 31.4784 0.0217263 31.4492 0.0155761L31.3831 0.00173806C31.3467 -0.000579352 31.3103 -0.000579352 31.2739 0.00173806H31.2124C30.8004 0.0386394 25.3559 0.558334 19.2364 3.2875C15.5616 4.92192 12.7171 7.43122 10.9274 10.4771L10.4662 10.677C3.91462 13.6014 0 19.2858 0 25.8834V25.9941C0.000155589 26.146 0.04364 26.2947 0.125346 26.4227C0.207053 26.5507 0.323589 26.6527 0.461267 26.7168C0.566932 26.7652 0.681762 26.7904 0.797992 26.7906H22.5467C22.589 26.7908 22.6312 26.7872 22.6728 26.7798L22.7282 26.766C22.7543 26.7583 22.7805 26.7537 22.8066 26.7445C22.8327 26.7353 22.845 26.726 22.865 26.7168C22.885 26.7076 22.9111 26.6984 22.9327 26.6861C22.9733 26.6621 23.0118 26.6348 23.048 26.6046L31.8121 19.2151C31.9017 19.1398 31.9735 19.0456 32.0224 18.9392C32.0713 18.8329 32.0961 18.7171 32.095 18.6V0.796655H32.0965ZM24.1719 23.5694L23.3309 24.2782V8.55671L30.5021 2.51257V18.2341L24.1719 23.5694ZM9.85421 19.4011H21.7364V25.1962H2.97825L9.85421 19.4011ZM19.8837 4.7451C22.6845 3.51191 25.6143 2.59548 28.6186 2.01286L22.2085 7.41738C19.2497 7.7784 16.3395 8.46365 13.5305 9.46079C15.1173 7.52347 17.2575 5.91672 19.8837 4.7451ZM12.0068 11.7533C15.1283 10.4684 18.3961 9.57242 21.7364 9.08563V17.8067H10.377C10.4589 15.6921 11.0159 13.6231 12.0068 11.7533ZM9.81884 12.7712C9.14704 14.5144 8.78992 16.363 8.76408 18.231L1.69131 24.1998C2.22638 19.3504 5.10623 15.2943 9.81884 12.7712Z" fill="#3569F3"/>
</svg>
